{
    "asset" : {
        "generator" : "Khronos glTF Blender I/O v1.2.75",
        "version" : "2.0"
    },
    "scene" : 0,
    "scenes" : [
        {
            "name" : "Scene",
            "nodes" : [
                0
            ]
        }
    ],
    "nodes" : [
        {
            "mesh" : 0,
            "name" : "Cylinder",
            "rotation" : [
                0.7071067690849304,
                0,
                0,
                0.7071067690849304
            ]
        }
    ],
    "materials" : [
        {
            "doubleSided" : true,
            "emissiveFactor" : [
                0,
                0,
                0
            ],
            "name" : "blue",
            "pbrMetallicRoughness" : {
                "baseColorFactor" : [
                    0.0032516098581254482,
                    0.05854858085513115,
                    0.303197979927063,
                    1
                ],
                "metallicFactor" : 0,
                "roughnessFactor" : 0.5
            }
        },
        {
            "doubleSided" : true,
            "emissiveFactor" : [
                0,
                0,
                0
            ],
            "name" : "Yellow",
            "pbrMetallicRoughness" : {
                "baseColorFactor" : [
                    1,
                    0.770502507686615,
                    0.12283123284578323,
                    1
                ],
                "metallicFactor" : 0,
                "roughnessFactor" : 0.5
            }
        },
        {
            "doubleSided" : true,
            "emissiveFactor" : [
                0,
                0,
                0
            ],
            "name" : "Red",
            "pbrMetallicRoughness" : {
                "baseColorFactor" : [
                    0.21403515338897705,
                    0.0008397418423555791,
                    0,
                    1
                ],
                "metallicFactor" : 0,
                "roughnessFactor" : 0.5
            }
        },
        {
            "doubleSided" : true,
            "emissiveFactor" : [
                0,
                0,
                0
            ],
            "name" : "Black",
            "pbrMetallicRoughness" : {
                "baseColorFactor" : [
                    0.02037898264825344,
                    0.02037898264825344,
                    0.02037898264825344,
                    1
                ],
                "metallicFactor" : 0,
                "roughnessFactor" : 0.5
            }
        }
    ],
    "meshes" : [
        {
            "name" : "Cylinder.001",
            "primitives" : [
                {
                    "attributes" : {
                        "POSITION" : 0,
                        "NORMAL" : 1,
                        "TEXCOORD_0" : 2
                    },
                    "indices" : 3,
                    "material" : 0
                },
                {
                    "attributes" : {
                        "POSITION" : 4,
                        "NORMAL" : 5,
                        "TEXCOORD_0" : 6
                    },
                    "indices" : 7,
                    "material" : 1
                },
                {
                    "attributes" : {
                        "POSITION" : 8,
                        "NORMAL" : 9,
                        "TEXCOORD_0" : 10
                    },
                    "indices" : 11,
                    "material" : 2
                },
                {
                    "attributes" : {
                        "POSITION" : 12,
                        "NORMAL" : 13,
                        "TEXCOORD_0" : 14
                    },
                    "indices" : 15,
                    "material" : 3
                }
            ]
        }
    ],
    "accessors" : [
        {
            "bufferView" : 0,
            "componentType" : 5126,
            "count" : 730,
            "max" : [
                3.6499974727630615,
                2.8538362979888916,
                1.0201680660247803
            ],
            "min" : [
                -3.740159749984741,
                -2.4489846229553223,
                -2.6895766258239746
            ],
            "type" : "VEC3"
        },
        {
            "bufferView" : 1,
            "componentType" : 5126,
            "count" : 730,
            "type" : "VEC3"
        },
        {
            "bufferView" : 2,
            "componentType" : 5126,
            "count" : 730,
            "type" : "VEC2"
        },
        {
            "bufferView" : 3,
            "componentType" : 5123,
            "count" : 1092,
            "type" : "SCALAR"
        },
        {
            "bufferView" : 4,
            "componentType" : 5126,
            "count" : 196,
            "max" : [
                3.789560556411743,
                2.8538362979888916,
                0.16099339723587036
            ],
            "min" : [
                -3.789560556411743,
                -1.6197682619094849,
                -2.925772190093994
            ],
            "type" : "VEC3"
        },
        {
            "bufferView" : 5,
            "componentType" : 5126,
            "count" : 196,
            "type" : "VEC3"
        },
        {
            "bufferView" : 6,
            "componentType" : 5126,
            "count" : 196,
            "type" : "VEC2"
        },
        {
            "bufferView" : 7,
            "componentType" : 5123,
            "count" : 294,
            "type" : "SCALAR"
        },
        {
            "bufferView" : 8,
            "componentType" : 5126,
            "count" : 48,
            "max" : [
                0.3421842157840729,
                0.3240675926208496,
                -1.3821433782577515
            ],
            "min" : [
                -0.3421842157840729,
                -0.6584445238113403,
                -1.7944753170013428
            ],
            "type" : "VEC3"
        },
        {
            "bufferView" : 9,
            "componentType" : 5126,
            "count" : 48,
            "type" : "VEC3"
        },
        {
            "bufferView" : 10,
            "componentType" : 5126,
            "count" : 48,
            "type" : "VEC2"
        },
        {
            "bufferView" : 11,
            "componentType" : 5123,
            "count" : 72,
            "type" : "SCALAR"
        },
        {
            "bufferView" : 12,
            "componentType" : 5126,
            "count" : 32,
            "max" : [
                0.4572439193725586,
                -2.4489829540252686,
                0.6567665934562683
            ],
            "min" : [
                -0.4572439193725586,
                -2.907116174697876,
                -0.6567665338516235
            ],
            "type" : "VEC3"
        },
        {
            "bufferView" : 13,
            "componentType" : 5126,
            "count" : 32,
            "type" : "VEC3"
        },
        {
            "bufferView" : 14,
            "componentType" : 5126,
            "count" : 32,
            "type" : "VEC2"
        },
        {
            "bufferView" : 15,
            "componentType" : 5123,
            "count" : 48,
            "type" : "SCALAR"
        }
    ],
    "bufferViews" : [
        {
            "buffer" : 0,
            "byteLength" : 8760,
            "byteOffset" : 0
        },
        {
            "buffer" : 0,
            "byteLength" : 8760,
            "byteOffset" : 8760
        },
        {
            "buffer" : 0,
            "byteLength" : 5840,
            "byteOffset" : 17520
        },
        {
            "buffer" : 0,
            "byteLength" : 2184,
            "byteOffset" : 23360
        },
        {
            "buffer" : 0,
            "byteLength" : 2352,
            "byteOffset" : 25544
        },
        {
            "buffer" : 0,
            "byteLength" : 2352,
            "byteOffset" : 27896
        },
        {
            "buffer" : 0,
            "byteLength" : 1568,
            "byteOffset" : 30248
        },
        {
            "buffer" : 0,
            "byteLength" : 588,
            "byteOffset" : 31816
        },
        {
            "buffer" : 0,
            "byteLength" : 576,
            "byteOffset" : 32404
        },
        {
            "buffer" : 0,
            "byteLength" : 576,
            "byteOffset" : 32980
        },
        {
            "buffer" : 0,
            "byteLength" : 384,
            "byteOffset" : 33556
        },
        {
            "buffer" : 0,
            "byteLength" : 144,
            "byteOffset" : 33940
        },
        {
            "buffer" : 0,
            "byteLength" : 384,
            "byteOffset" : 34084
        },
        {
            "buffer" : 0,
            "byteLength" : 384,
            "byteOffset" : 34468
        },
        {
            "buffer" : 0,
            "byteLength" : 256,
            "byteOffset" : 34852
        },
        {
            "buffer" : 0,
            "byteLength" : 96,
            "byteOffset" : 35108
        }
    ],
    "buffers" : [
        {
            "byteLength" : 35204,
            "uri" : "data:application/octet-stream;base64,"
        }
    ]
}
